<?xml version="1.0" encoding="utf-8"?>
<!-- Generator: Adobe Illustrator 21.0.2, SVG Export Plug-In . SVG Version: 6.00 Build 0)  -->
<svg version="1.1" id="Layer_1" xmlns="http://www.w3.org/2000/svg" xmlns:xlink="http://www.w3.org/1999/xlink" x="0px" y="0px"
	 viewBox="0 0 1703.4 1210.5" style="enable-background:new 0 0 1703.4 1210.5;" xml:space="preserve">
<style type="text/css">
	.st0{fill:#21B395;}
	.st1{fill:#FFFFFF;}
	.st2{font-family:'Montserrat-Bold';}
	.st3{font-size:63.2724px;}
</style>
<g>
	<g>
		<path class="st0" d="M238.2,681.9V467.7c0-8.5,2.4-15.5,7.1-20.8c4.7-5.3,11-8,18.7-8c13.8,0,22.5,7.2,26,21.6
			c4.8-7.7,11.6-13.6,20.5-17.6c8.9-4,18.4-6.1,28.6-6.1c17.7,0,32.8,4.9,45.4,14.6c12.6,9.7,22.1,22.4,28.5,38.1
			c6.4,15.7,9.7,32.3,9.7,49.8c0,16.4-3.5,32.1-10.6,47.1c-7.1,15-17.2,27.2-30.3,36.4c-13.1,9.2-27.9,13.9-44.4,13.9
			c-8.2,0-16.4-1.5-24.7-4.6c-8.3-3.1-15.9-7.5-22.6-13.4v63.3c0,5.4-1.1,10.3-3.3,14.7c-2.2,4.4-5.3,7.9-9.3,10.3
			c-4,2.4-8.4,3.6-13.3,3.6c-7.7,0-13.9-2.6-18.7-7.8C240.6,697.5,238.2,690.6,238.2,681.9z M290,535.3c0,13.9,3.5,26.4,10.4,37.4
			c7,11,17,16.5,30.1,16.5c8.4,0,15.7-2.6,21.9-7.7c6.2-5.2,10.8-11.7,13.9-19.6c3-7.9,4.6-16.2,4.6-24.9c0-8.7-1.5-17-4.6-25.1
			c-3-8.1-7.6-14.7-13.8-19.9c-6.1-5.2-13.5-7.8-22-7.8c-8.8,0-16.2,2.4-22.4,7.3c-6.1,4.9-10.7,11.2-13.7,18.9
			C291.5,518.1,290,526.4,290,535.3z"/>
		<path class="st0" d="M451,605.6V384.4c0-8.5,2.4-15.5,7.1-20.8c4.7-5.3,11-8,18.7-8c5,0,9.5,1.2,13.4,3.6c3.9,2.4,7,5.8,9.2,10.2
			c2.2,4.4,3.3,9.4,3.3,15v221.2c0,5.6-1.1,10.6-3.3,15c-2.2,4.4-5.3,7.8-9.3,10.2c-4,2.4-8.4,3.6-13.3,3.6c-7.7,0-13.9-2.7-18.7-8
			C453.4,621.1,451,614.1,451,605.6z"/>
		<path class="st0" d="M538.7,561v-93.3c0-8.5,2.4-15.5,7.1-20.8c4.7-5.3,11-8,18.7-8c5,0,9.5,1.2,13.4,3.6c3.9,2.4,7,5.8,9.2,10.2
			c2.2,4.4,3.3,9.4,3.3,15V560c0,10.2,3.3,18.3,9.9,24.4c6.6,6.1,14.4,9.1,23.4,9.1c6.1,0,11.6-1.3,16.7-3.9
			c5-2.6,9.1-6.5,12.2-11.5c3.1-5,4.6-11.1,4.6-18.1v-92.3c0-8.5,2.4-15.5,7.1-20.8c4.7-5.3,11-8,18.7-8c5,0,9.5,1.2,13.4,3.6
			c3.9,2.4,7,5.8,9.2,10.2c2.2,4.4,3.3,9.4,3.3,15V561c0,15.3-3.3,28.7-9.9,40.1c-6.6,11.4-16.4,20.2-29.3,26.3
			c-12.9,6.1-28.3,9.2-46.1,9.2c-27,0-48-6.8-62.8-20.4C546.2,602.7,538.7,584.3,538.7,561z"/>
		<path class="st0" d="M894.2,469.5c0,5.8-1.9,11.5-5.6,16.8c-3.7,5.4-8.5,8.1-14.2,8.1c-3.7,0-10-1.7-18.7-5.1
			c-8.7-3.4-16.1-5.1-22.2-5.1c-9.2,0-17.2,2.5-23.8,7.5c-6.6,5-11.6,11.5-14.8,19.6c-3.3,8.1-4.9,16.7-4.9,25.8
			c0,13.8,3.9,26,11.8,36.5c7.8,10.5,18.4,15.7,31.8,15.7c3.6,0,7.5-0.7,11.8-2c4.2-1.3,9.3-3.1,15.4-5.3c6-2.2,9.8-3.3,11.3-3.3
			c4,0,7.7,1,11.1,3.1c3.4,2,6.1,4.8,8.2,8.2c2,3.4,3.1,7.2,3.1,11.3c0,8-3.7,14.8-11.1,20.1c-7.4,5.4-16.2,9.3-26.2,11.7
			c-10.1,2.4-18.7,3.7-26,3.7c-17.9,0-33.9-4.5-48.1-13.4c-14.2-8.9-25.1-21.1-32.9-36.3c-7.8-15.3-11.7-31.9-11.7-49.9
			c0-12.9,2.3-25.4,6.8-37.5c4.5-12.1,10.9-22.9,19.2-32.4c8.3-9.5,18.2-16.9,29.6-22.3c11.5-5.4,23.8-8.1,37-8.1
			c8,0,16.9,1.1,26.9,3.2c10,2.2,18.6,5.7,25.7,10.5C890.6,455.4,894.2,461.7,894.2,469.5z"/>
		<path class="st0" d="M919.3,605.6V384.4c0-8.5,2.4-15.5,7.1-20.8c4.7-5.3,11-8,18.7-8c5,0,9.5,1.2,13.4,3.6
			c3.9,2.4,7,5.8,9.2,10.2c2.2,4.4,3.3,9.4,3.3,15v120.7l56.7-54.9c8-7.5,15.8-11.2,23.5-11.2c6.2,0,11.4,2.4,15.6,7.2
			c4.2,4.8,6.3,10.2,6.3,16.1c0,7.5-3.4,14.3-10.2,20.5l-46,41.1l60.7,71.1c4.3,4.9,6.5,10.6,6.5,17.2c0,6.9-2.4,12.7-7.1,17.5
			c-4.7,4.7-10.5,7.1-17.3,7.1c-4.4,0-8.5-1.3-12.3-3.8c-3.7-2.5-8-6.6-12.6-12.2l-63.2-77.9H971v62.8c0,5.6-1.1,10.6-3.3,15
			c-2.2,4.4-5.3,7.8-9.3,10.2c-4,2.4-8.4,3.6-13.3,3.6c-7.7,0-13.9-2.7-18.7-8C921.6,621.1,919.3,614.1,919.3,605.6z"/>
		<path class="st0" d="M1258,554h-110.2c1.8,12.3,7.1,21.6,16.1,27.9c9,6.3,19.9,9.5,32.6,9.5c7.8,0,14.5-1.2,20-3.7
			c5.5-2.5,12.4-5.9,20.6-10.4c8.2-4.5,14.2-6.8,18-6.8c3.5,0,6.9,1.1,10.3,3.2c3.3,2.2,6,4.9,8,8.3c2,3.4,3,7,3,10.7
			c0,5.4-2.5,10.7-7.5,16c-5,5.3-11.6,10-19.8,14.1c-8.2,4.2-17.5,7.5-27.9,10c-10.4,2.5-20.1,3.8-29.4,3.8
			c-18.8,0-35.7-4.3-50.5-12.9c-14.9-8.6-26.3-20.5-34.4-35.6c-8.1-15.1-12.1-32.2-12.1-51.1c0-12.9,2.3-25.4,6.9-37.5
			c4.6-12.2,11.1-23,19.3-32.5c8.2-9.5,18.1-16.9,29.7-22.2c11.5-5.3,23.8-8,36.9-8c13.4,0,26,2.8,37.6,8.3
			c11.6,5.6,21.5,12.9,29.6,22s14.4,19.3,18.9,30.4c4.6,11.2,6.8,22.3,6.8,33.2C1280.6,546.3,1273.1,554,1258,554z M1146.6,519.5
			h82.3c-1.4-11.8-5.7-21.3-13-28.6c-7.3-7.2-16.7-10.9-28.2-10.9c-11.1,0-20.4,3.7-27.7,11.1
			C1152.6,498.4,1148.1,507.9,1146.6,519.5z"/>
		<path class="st0" d="M1483.1,384.4v221.2c0,5.6-1.1,10.6-3.3,15c-2.2,4.4-5.3,7.8-9.3,10.2c-4,2.4-8.4,3.6-13.3,3.6
			c-13.9,0-22.5-7.2-25.8-21.5c-4.8,7.6-11.6,13.4-20.3,17.6c-8.7,4.1-17.8,6.2-27.3,6.2c-16.5,0-31.3-4.6-44.3-13.9
			c-13-9.2-23.1-21.4-30.2-36.5c-7.1-15.1-10.6-30.8-10.6-47c0-17.5,3.2-34.2,9.5-49.8c6.3-15.7,15.8-28.4,28.5-38.1
			c12.7-9.7,27.8-14.6,45.4-14.6c5.8,0,11.7,0.7,17.5,2c5.8,1.3,11.4,3.3,16.7,5.9c5.3,2.6,10.3,5.9,15.1,10v-70.4
			c0-8.5,2.4-15.5,7.1-20.8c4.7-5.3,11-8,18.7-8c5,0,9.5,1.2,13.4,3.6c3.9,2.4,7,5.8,9.2,10.2C1482,373.7,1483.1,378.8,1483.1,384.4
			z M1431.3,535.3c0-13.9-3.5-25.9-10.6-36c-7.1-10.1-17.1-15.1-30.1-15.1c-8.4,0-15.7,2.6-21.8,7.8c-6.1,5.2-10.7,11.9-13.8,19.9
			c-3,8.1-4.6,16.5-4.6,25.1c0,6,0.9,12.1,2.6,18.5c1.8,6.3,4.3,12,7.7,17.1c3.4,5.1,7.6,9.1,12.7,12.1c5.1,3,10.8,4.5,17.1,4.5
			c8.8,0,16.3-2.6,22.5-7.9c6.2-5.3,10.8-12.1,13.8-20.5C1429.8,552.5,1431.3,544,1431.3,535.3z"/>
	</g>
	<polygon class="st1" points="438.6,603.4 355.4,563.2 345,510.4 428.2,480.1 	"/>
	
		<ellipse transform="matrix(0.9445 -0.3285 0.3285 0.9445 -141.2708 154.7387)" class="st0" cx="387.4" cy="495.5" rx="25.9" ry="25.9"/>
	
		<ellipse transform="matrix(0.2467 -0.9691 0.9691 0.2467 -262.4696 809.674)" class="st0" cx="389.6" cy="573.7" rx="26.1" ry="26.1"/>
	<path class="st0" d="M408.4,593.4l4.5-8l-3.1-13.7l-43.5-9.7c0,0-1.5,3.9-4.4,9.1c-2.9,5.2,0,9.1,0,9.1l10.8,1.6l30.6,2
		L408.4,593.4z"/>
</g>
<text transform="matrix(1 0 0 1 477.1863 812.442)" class="st0 st2 st3">The best from your allies</text>
</svg>
