<?xml version="1.0" encoding="utf-8"?>
<!-- Generator: Adobe Illustrator 21.0.2, SVG Export Plug-In . SVG Version: 6.00 Build 0)  -->
<svg version="1.1" id="Layer_1" xmlns="http://www.w3.org/2000/svg" xmlns:xlink="http://www.w3.org/1999/xlink" x="0px" y="0px"
	 viewBox="0 0 413 118" style="enable-background:new 0 0 413 118;" xml:space="preserve">
<style type="text/css">
	.st0{fill:#21B395;}
	.st1{fill:#FFFFFF;}
</style>
<g>
	<g>
		<path class="st0" d="M-0.3,108.7V37.6c0-2.8,0.8-5.1,2.4-6.9C3.6,28.9,5.7,28,8.3,28c4.6,0,7.5,2.4,8.6,7.2
			c1.6-2.6,3.9-4.5,6.8-5.9c2.9-1.3,6.1-2,9.5-2c5.9,0,10.9,1.6,15.1,4.8c4.2,3.2,7.3,7.4,9.5,12.6c2.1,5.2,3.2,10.7,3.2,16.5
			c0,5.4-1.2,10.6-3.5,15.6c-2.3,5-5.7,9-10,12.1c-4.3,3.1-9.3,4.6-14.7,4.6c-2.7,0-5.5-0.5-8.2-1.5c-2.8-1-5.3-2.5-7.5-4.4v21
			c0,1.8-0.4,3.4-1.1,4.9c-0.7,1.5-1.8,2.6-3.1,3.4c-1.3,0.8-2.8,1.2-4.4,1.2c-2.6,0-4.6-0.9-6.2-2.6C0.5,113.8-0.3,111.5-0.3,108.7
			z M16.9,60c0,4.6,1.2,8.8,3.5,12.4c2.3,3.7,5.6,5.5,10,5.5c2.8,0,5.2-0.9,7.3-2.6c2.1-1.7,3.6-3.9,4.6-6.5c1-2.6,1.5-5.4,1.5-8.3
			s-0.5-5.7-1.5-8.3c-1-2.7-2.5-4.9-4.6-6.6c-2-1.7-4.5-2.6-7.3-2.6c-2.9,0-5.4,0.8-7.4,2.4c-2,1.6-3.6,3.7-4.5,6.3
			C17.4,54.3,16.9,57.1,16.9,60z"/>
		<path class="st0" d="M70.3,83.3V9.9c0-2.8,0.8-5.1,2.4-6.9c1.6-1.8,3.6-2.6,6.2-2.6c1.7,0,3.2,0.4,4.5,1.2
			c1.3,0.8,2.3,1.9,3.1,3.4s1.1,3.1,1.1,5v73.4c0,1.9-0.4,3.5-1.1,5s-1.8,2.6-3.1,3.4c-1.3,0.8-2.8,1.2-4.4,1.2
			c-2.6,0-4.6-0.9-6.2-2.6C71.1,88.5,70.3,86.2,70.3,83.3z"/>
		<path class="st0" d="M99.4,68.6v-31c0-2.8,0.8-5.1,2.4-6.9c1.6-1.8,3.6-2.6,6.2-2.6c1.7,0,3.2,0.4,4.5,1.2
			c1.3,0.8,2.3,1.9,3.1,3.4c0.7,1.5,1.1,3.1,1.1,5v30.6c0,3.4,1.1,6.1,3.3,8.1c2.2,2,4.8,3,7.8,3c2,0,3.9-0.4,5.5-1.3
			c1.7-0.9,3-2.1,4-3.8c1-1.7,1.5-3.7,1.5-6V37.6c0-2.8,0.8-5.1,2.4-6.9c1.6-1.8,3.6-2.6,6.2-2.6c1.7,0,3.2,0.4,4.5,1.2
			c1.3,0.8,2.3,1.9,3.1,3.4c0.7,1.5,1.1,3.1,1.1,5v31c0,5.1-1.1,9.5-3.3,13.3c-2.2,3.8-5.4,6.7-9.7,8.7c-4.3,2-9.4,3.1-15.3,3.1
			c-9,0-15.9-2.3-20.8-6.8C101.9,82.4,99.4,76.3,99.4,68.6z"/>
		<path class="st0" d="M217.4,38.2c0,1.9-0.6,3.8-1.9,5.6c-1.2,1.8-2.8,2.7-4.7,2.7c-1.2,0-3.3-0.6-6.2-1.7
			c-2.9-1.1-5.3-1.7-7.4-1.7c-3.1,0-5.7,0.8-7.9,2.5s-3.8,3.8-4.9,6.5c-1.1,2.7-1.6,5.5-1.6,8.6c0,4.6,1.3,8.6,3.9,12.1
			c2.6,3.5,6.1,5.2,10.5,5.2c1.2,0,2.5-0.2,3.9-0.7c1.4-0.4,3.1-1,5.1-1.8c2-0.7,3.3-1.1,3.8-1.1c1.3,0,2.5,0.3,3.7,1
			c1.1,0.7,2,1.6,2.7,2.7c0.7,1.1,1,2.4,1,3.7c0,2.7-1.2,4.9-3.7,6.7c-2.5,1.8-5.4,3.1-8.7,3.9c-3.3,0.8-6.2,1.2-8.6,1.2
			c-5.9,0-11.3-1.5-16-4.5c-4.7-3-8.3-7-10.9-12.1c-2.6-5.1-3.9-10.6-3.9-16.6c0-4.3,0.7-8.4,2.2-12.4s3.6-7.6,6.4-10.7
			c2.8-3.1,6-5.6,9.8-7.4c3.8-1.8,7.9-2.7,12.3-2.7c2.6,0,5.6,0.4,8.9,1.1c3.3,0.7,6.2,1.9,8.5,3.5
			C216.2,33.5,217.4,35.6,217.4,38.2z"/>
		<path class="st0" d="M225.7,83.3V9.9c0-2.8,0.8-5.1,2.4-6.9c1.6-1.8,3.6-2.6,6.2-2.6c1.7,0,3.2,0.4,4.5,1.2
			c1.3,0.8,2.3,1.9,3.1,3.4c0.7,1.5,1.1,3.1,1.1,5V50l18.8-18.2c2.6-2.5,5.2-3.7,7.8-3.7c2.1,0,3.8,0.8,5.2,2.4
			c1.4,1.6,2.1,3.4,2.1,5.4c0,2.5-1.1,4.8-3.4,6.8l-15.3,13.6l20.1,23.6c1.4,1.6,2.2,3.5,2.2,5.7c0,2.3-0.8,4.2-2.4,5.8
			s-3.5,2.4-5.7,2.4c-1.5,0-2.8-0.4-4.1-1.3c-1.2-0.8-2.6-2.2-4.2-4l-21-25.9h-0.2v20.8c0,1.9-0.4,3.5-1.1,5
			c-0.7,1.5-1.8,2.6-3.1,3.4c-1.3,0.8-2.8,1.2-4.4,1.2c-2.6,0-4.6-0.9-6.2-2.6S225.7,86.2,225.7,83.3z"/>
		<path class="st0" d="M338.2,66.2h-36.6c0.6,4.1,2.4,7.2,5.4,9.3c3,2.1,6.6,3.1,10.8,3.1c2.6,0,4.8-0.4,6.6-1.2
			c1.8-0.8,4.1-2,6.8-3.5s4.7-2.2,6-2.2c1.2,0,2.3,0.4,3.4,1.1c1.1,0.7,2,1.6,2.6,2.8c0.7,1.1,1,2.3,1,3.6c0,1.8-0.8,3.6-2.5,5.3
			c-1.7,1.7-3.8,3.3-6.6,4.7c-2.7,1.4-5.8,2.5-9.3,3.3c-3.4,0.8-6.7,1.3-9.8,1.3c-6.2,0-11.8-1.4-16.8-4.3
			c-4.9-2.9-8.7-6.8-11.4-11.8c-2.7-5-4-10.7-4-17c0-4.3,0.8-8.4,2.3-12.5c1.5-4,3.7-7.6,6.4-10.8c2.7-3.1,6-5.6,9.8-7.4
			c3.8-1.8,7.9-2.6,12.3-2.6c4.5,0,8.6,0.9,12.5,2.8c3.9,1.8,7.1,4.3,9.8,7.3s4.8,6.4,6.3,10.1c1.5,3.7,2.3,7.4,2.3,11
			C345.7,63.7,343.2,66.2,338.2,66.2z M301.2,54.8h27.3c-0.5-3.9-1.9-7.1-4.3-9.5c-2.4-2.4-5.5-3.6-9.4-3.6c-3.7,0-6.8,1.2-9.2,3.7
			C303.2,47.8,301.7,50.9,301.2,54.8z"/>
		<path class="st0" d="M412.9,9.9v73.4c0,1.9-0.4,3.5-1.1,5s-1.8,2.6-3.1,3.4c-1.3,0.8-2.8,1.2-4.4,1.2c-4.6,0-7.5-2.4-8.6-7.1
			c-1.6,2.5-3.8,4.5-6.7,5.8c-2.9,1.4-5.9,2.1-9.1,2.1c-5.5,0-10.4-1.5-14.7-4.6c-4.3-3.1-7.7-7.1-10-12.1c-2.3-5-3.5-10.2-3.5-15.6
			c0-5.8,1-11.3,3.1-16.5c2.1-5.2,5.2-9.4,9.5-12.6c4.2-3.2,9.2-4.8,15.1-4.8c1.9,0,3.9,0.2,5.8,0.7c1.9,0.4,3.8,1.1,5.5,2
			c1.7,0.9,3.4,2,5,3.3V9.9c0-2.8,0.8-5.1,2.4-6.9c1.6-1.8,3.6-2.6,6.2-2.6c1.7,0,3.2,0.4,4.5,1.2c1.3,0.8,2.3,1.9,3.1,3.4
			S412.9,8.1,412.9,9.9z M395.7,60c0-4.6-1.2-8.6-3.5-12c-2.3-3.3-5.7-5-10-5c-2.8,0-5.2,0.9-7.2,2.6c-2,1.7-3.6,3.9-4.6,6.6
			c-1,2.7-1.5,5.5-1.5,8.3c0,2,0.3,4,0.9,6.1c0.6,2.1,1.4,4,2.6,5.7c1.1,1.7,2.5,3,4.2,4c1.7,1,3.6,1.5,5.7,1.5
			c2.9,0,5.4-0.9,7.5-2.6c2.1-1.7,3.6-4,4.6-6.8C395.2,65.7,395.7,62.9,395.7,60z"/>
	</g>
	<polygon class="st1" points="66.2,82.6 38.6,69.3 35.1,51.7 62.7,41.7 	"/>
	<ellipse transform="matrix(0.9445 -0.3285 0.3285 0.9445 -12.6459 18.7538)" class="st0" cx="49.2" cy="46.8" rx="8.6" ry="8.6"/>
	<ellipse transform="matrix(0.2467 -0.9691 0.9691 0.2467 -32.8977 103.1779)" class="st0" cx="49.9" cy="72.7" rx="8.7" ry="8.7"/>
	<path class="st0" d="M56.2,79.3l1.5-2.6l-1-4.5l-14.4-3.2c0,0-0.5,1.3-1.5,3s0,3,0,3l3.6,0.5l10.2,0.7L56.2,79.3z"/>
</g>
</svg>
