<?xml version="1.0" encoding="utf-8"?>
<!-- Generator: Adobe Illustrator 21.0.2, SVG Export Plug-In . SVG Version: 6.00 Build 0)  -->
<svg version="1.1" id="Layer_1" xmlns="http://www.w3.org/2000/svg" xmlns:xlink="http://www.w3.org/1999/xlink" x="0px" y="0px"
	 viewBox="0 0 213 73" style="enable-background:new 0 0 213 73;" xml:space="preserve">
<g>
	<g>
		<path d="M19.4,0v4.3h-7.3v18.9H7.5V4.3H0.2V0H19.4z"/>
		<path d="M42.4,18.8H32.3l-1.7,4.4h-5L35.2,0h4.3l9.6,23.2h-5L42.4,18.8z M40.8,14.7l-2.3-5.9c-0.5-1.3-1.1-3.2-1.1-3.2h0
			c0,0-0.6,1.9-1.1,3.2l-2.3,5.9H40.8z"/>
		<path d="M80.8,0v23.2h-4.5V16c0-4.9,0.2-8.2,0.1-8.2h0c0,0-1.7,2.9-2.1,3.5l-3.6,6.2h-2.4l-3.6-6.2c-0.4-0.7-2.1-3.5-2.1-3.5h0
			c0,0,0.2,3.4,0.2,8.2v7.3h-4.5V0h4.3l4.8,8c1.8,3,2.1,3.7,2.1,3.7h0c0,0,0.3-0.7,2.1-3.7l4.8-8H80.8z"/>
		<path d="M151.5,0v4.3h-7.3v18.9h-4.6V4.3h-7.2V0H151.5z"/>
		<path d="M174.5,18.8h-10.1l-1.7,4.4h-5L167.3,0h4.3l9.6,23.2h-5L174.5,18.8z M172.9,14.7l-2.3-5.9c-0.5-1.3-1.1-3.2-1.1-3.2h0
			c0,0-0.6,1.9-1.1,3.2l-2.3,5.9H172.9z"/>
		<path d="M212.8,0v23.2h-4.5V16c0-4.9,0.2-8.2,0.1-8.2h0c0,0-1.7,2.9-2.1,3.5l-3.6,6.2h-2.4l-3.6-6.2c-0.4-0.7-2.1-3.5-2.1-3.5h0
			c0,0,0.2,3.4,0.2,8.2v7.3h-4.5V0h4.3l4.8,8c1.8,3,2.1,3.7,2.1,3.7h0c0,0,0.3-0.7,2.1-3.7l4.8-8H212.8z"/>
		<rect x="97.9" y="9.5" transform="matrix(0.7071 -0.7071 0.7071 0.7071 22.9415 78.7606)" width="17.3" height="4.3"/>
	</g>
	<g>
		<path d="M129.8,72.8c0.2,0,0.3,0,0.4-0.1c0.1,0,0.1-0.1,0.1-0.1v-7.3c0-0.2,0-0.3,0-0.4c0-0.1,0-0.2-0.1-0.3
			c0-0.1-0.1-0.1-0.1-0.1c-0.1,0-0.1-0.1-0.2-0.1l-0.4-0.1l0-0.1l1.8-0.5l0,1.1l0,0c0.3-0.3,0.6-0.6,0.9-0.8
			c0.3-0.2,0.7-0.3,1.1-0.3c0.3,0,0.7,0.1,0.9,0.2c0.3,0.1,0.5,0.3,0.8,0.6c0.2,0.2,0.4,0.5,0.5,0.9c0.1,0.3,0.2,0.7,0.2,1.1
			c0,0.5-0.1,0.9-0.2,1.3c-0.2,0.4-0.4,0.7-0.7,1c-0.3,0.3-0.6,0.5-0.9,0.7c-0.4,0.2-0.7,0.2-1.1,0.2c-0.3,0-0.6,0-0.8-0.1
			c-0.3-0.1-0.5-0.1-0.7-0.2h0v3.1c0,0,0,0.1,0.1,0.1c0.1,0,0.2,0,0.5,0.1l0.6,0l0,0.2h-3l0-0.2L129.8,72.8z M133.7,69.4
			c0.2-0.1,0.4-0.3,0.6-0.6c0.2-0.2,0.3-0.5,0.4-0.8c0.1-0.3,0.1-0.7,0.1-1.1c0-0.4,0-0.7-0.1-1c-0.1-0.3-0.2-0.6-0.4-0.8
			c-0.2-0.2-0.4-0.4-0.6-0.5c-0.2-0.1-0.5-0.2-0.8-0.2c-0.3,0-0.6,0.1-0.9,0.2c-0.3,0.2-0.5,0.3-0.7,0.6v3.3
			c0.2,0.3,0.4,0.5,0.7,0.7c0.3,0.2,0.6,0.3,1,0.3C133.2,69.6,133.4,69.5,133.7,69.4z"/>
		<path d="M139.9,69.6c-0.2-0.2-0.2-0.4-0.3-0.7l0,0c-0.2,0.3-0.5,0.5-0.8,0.7c-0.3,0.2-0.6,0.3-0.9,0.3c-0.2,0-0.4,0-0.6-0.1
			c-0.2-0.1-0.3-0.2-0.4-0.3c-0.1-0.1-0.2-0.3-0.3-0.4c-0.1-0.2-0.1-0.3-0.1-0.5c0-0.2,0.1-0.5,0.2-0.7c0.1-0.2,0.3-0.4,0.5-0.6
			c0.2-0.2,0.6-0.3,1-0.5c0.4-0.2,0.9-0.3,1.5-0.5l0-0.5c0-0.3,0-0.6-0.1-0.8c-0.1-0.2-0.2-0.4-0.3-0.5c-0.1-0.1-0.3-0.2-0.4-0.3
			c-0.2-0.1-0.3-0.1-0.5-0.1c-0.1,0-0.3,0-0.4,0.1c-0.1,0-0.3,0.1-0.4,0.1c-0.1,0-0.2,0.1-0.3,0.1c-0.1,0.1-0.1,0.1-0.1,0.1
			c0,0,0,0.1,0,0.1c0,0,0.1,0.1,0.1,0.1c0,0.1,0.1,0.1,0.1,0.2c0,0.1,0,0.1,0,0.2c0,0.1-0.1,0.3-0.2,0.4c-0.1,0.1-0.2,0.2-0.4,0.2
			c-0.2,0-0.3,0-0.4-0.1c-0.1-0.1-0.2-0.2-0.2-0.4c0-0.2,0.1-0.3,0.2-0.5c0.2-0.2,0.4-0.3,0.6-0.5c0.2-0.1,0.5-0.3,0.8-0.4
			c0.3-0.1,0.6-0.1,0.8-0.1c0.3,0,0.6,0,0.8,0.1c0.2,0.1,0.4,0.2,0.5,0.3c0.1,0.2,0.2,0.4,0.3,0.6c0.1,0.3,0.1,0.6,0.1,1l-0.1,2.8
			c0,0.2,0,0.3,0.1,0.4c0.1,0.1,0.2,0.1,0.3,0.1c0.1,0,0.2,0,0.3-0.1c0.1-0.1,0.2-0.2,0.3-0.3l0.1,0.1c-0.1,0.1-0.1,0.2-0.2,0.3
			c-0.1,0.1-0.2,0.2-0.3,0.3c-0.1,0.1-0.2,0.2-0.3,0.2c-0.1,0.1-0.2,0.1-0.4,0.1C140.2,69.8,140,69.7,139.9,69.6z M139,69
			c0.2-0.1,0.4-0.3,0.6-0.4l0.1-2.1c-0.5,0.1-0.8,0.2-1.1,0.4c-0.3,0.1-0.5,0.3-0.7,0.4c-0.2,0.1-0.3,0.3-0.3,0.4
			c-0.1,0.2-0.1,0.3-0.1,0.5c0,0.3,0.1,0.6,0.3,0.7c0.2,0.2,0.4,0.3,0.7,0.3C138.6,69.2,138.8,69.1,139,69z"/>
		<path d="M142.2,69.4c0.2,0,0.3,0,0.4-0.1c0.1,0,0.1-0.1,0.1-0.1v-3.9c0-0.2,0-0.3,0-0.4c0-0.1,0-0.2-0.1-0.3
			c0-0.1-0.1-0.1-0.1-0.1c-0.1,0-0.1-0.1-0.2-0.1l-0.4-0.1l0-0.1l1.8-0.5l0,2.1h0c0.2-0.7,0.5-1.2,0.8-1.6c0.3-0.4,0.6-0.5,1-0.5
			c0.2,0,0.4,0.1,0.6,0.2c0.1,0.1,0.2,0.3,0.2,0.5c0,0.2-0.1,0.3-0.2,0.5c-0.1,0.1-0.3,0.2-0.5,0.2c-0.2,0-0.3-0.1-0.4-0.2
			c-0.1-0.1-0.2-0.3-0.2-0.5c-0.3,0.1-0.5,0.3-0.7,0.6c-0.2,0.3-0.4,0.8-0.6,1.3v3c0,0.1,0,0.1,0.1,0.1c0.1,0,0.2,0,0.4,0.1l0.5,0
			l0,0.2h-2.9l0-0.2L142.2,69.4z"/>
		<path d="M148.1,69.8c-0.2,0-0.3-0.1-0.4-0.2c-0.1-0.1-0.2-0.3-0.3-0.4c-0.1-0.2-0.1-0.4-0.1-0.7l0.1-4l-1,0l0-0.2l1.8-1.5l0.2,0
			l0,1.2h2l-0.2,0.5h-1.8c0,0.7,0,1.4-0.1,1.9c0,0.2,0,0.5,0,0.7c0,0.2,0,0.4,0,0.6c0,0.2,0,0.4,0,0.6c0,0.3,0.1,0.6,0.2,0.7
			c0.2,0.2,0.4,0.2,0.7,0.2c0.2,0,0.4,0,0.6-0.1c0.2-0.1,0.4-0.2,0.5-0.3l0.1,0.1c-0.2,0.2-0.5,0.5-0.8,0.6
			c-0.3,0.2-0.6,0.3-0.9,0.3C148.4,69.8,148.3,69.8,148.1,69.8z"/>
		<path d="M155,69.6c-0.4-0.2-0.7-0.4-0.9-0.6c-0.3-0.3-0.5-0.6-0.6-1c-0.1-0.4-0.2-0.8-0.2-1.2c0-0.4,0.1-0.8,0.2-1.2
			c0.2-0.4,0.4-0.7,0.6-1c0.3-0.3,0.6-0.5,1-0.7c0.4-0.2,0.8-0.2,1.2-0.2c0.4,0,0.8,0.1,1.2,0.2c0.4,0.2,0.7,0.4,0.9,0.6
			c0.3,0.3,0.5,0.6,0.6,0.9c0.1,0.4,0.2,0.8,0.2,1.2c0,0.4-0.1,0.9-0.2,1.2c-0.2,0.4-0.4,0.7-0.6,1c-0.3,0.3-0.6,0.5-0.9,0.7
			c-0.4,0.2-0.8,0.2-1.2,0.2C155.7,69.8,155.3,69.8,155,69.6z M157,69.4c0.2-0.1,0.4-0.3,0.6-0.6c0.2-0.2,0.3-0.5,0.4-0.9
			c0.1-0.3,0.1-0.7,0.1-1c0-0.5-0.1-1-0.2-1.4c-0.1-0.4-0.3-0.8-0.6-1c-0.2-0.2-0.3-0.3-0.5-0.4c-0.2-0.1-0.4-0.1-0.7-0.1
			c-0.3,0-0.5,0.1-0.8,0.2c-0.2,0.1-0.4,0.3-0.6,0.6c-0.2,0.2-0.3,0.5-0.4,0.8c-0.1,0.3-0.1,0.7-0.1,1c0,0.5,0.1,1,0.2,1.5
			c0.1,0.4,0.3,0.8,0.6,1c0.1,0.2,0.3,0.3,0.5,0.4c0.2,0.1,0.4,0.1,0.7,0.1C156.5,69.6,156.7,69.5,157,69.4z"/>
		<path d="M160.2,69.4c0.2,0,0.3,0,0.4-0.1c0.1,0,0.1-0.1,0.1-0.1v-4.8l-1,0l0.2-0.5h0.8l0-0.3c0-0.5,0.1-0.9,0.3-1.3
			c0.2-0.4,0.4-0.7,0.6-0.9c0.2-0.2,0.5-0.4,0.8-0.6c0.3-0.1,0.6-0.2,0.9-0.2c0.3,0,0.5,0.1,0.7,0.2c0.2,0.1,0.2,0.3,0.2,0.5
			c0,0.2-0.1,0.3-0.2,0.4c-0.1,0.1-0.2,0.2-0.4,0.2c-0.2,0-0.3-0.1-0.5-0.2c-0.1-0.1-0.2-0.3-0.3-0.5l0-0.1l-0.2,0
			c-0.4,0.1-0.6,0.4-0.8,0.8c-0.1,0.4-0.2,0.9-0.2,1.6v0.5h1.6l-0.2,0.5h-1.4v4.8c0,0.1,0,0.1,0.1,0.1c0.1,0,0.2,0,0.4,0.1l0.6,0
			l0,0.2h-3l0-0.2L160.2,69.4z"/>
		<path d="M206.4,69.8h3.2V61h3.2v-2.7h-9.7V61h3.2V69.8z M195.7,63.6v-2.8h1.9c1.2,0,1.8,0.5,1.8,1.4c0,0.9-0.6,1.4-1.8,1.4H195.7z
			 M192.5,69.8h3.2v-3.8h1.9c2.9,0,4.8-1.2,4.8-3.9c0-2.7-1.9-3.9-4.8-3.9h-5.2V69.8z M181.4,69.8h8.8v-2.6h-5.6v-2h5.5v-2.5h-5.5
			v-1.9h5.6v-2.6h-8.8V69.8z M171.6,67.1v-6.2h1c2.3,0,3.7,0.8,3.7,3.1c0,2.3-1.4,3.1-3.7,3.1H171.6z M168.4,69.8h4.2
			c4,0,6.9-1.6,6.9-5.8c0-4.2-2.9-5.8-6.9-5.8h-4.2V69.8z"/>
	</g>
</g>
</svg>
