<svg id="Layer_1" xmlns="http://www.w3.org/2000/svg" viewBox="0 0 1703.4 1210.5"><style>.st0{fill:#21b395}.st1{fill:#fff}.st2{font-family:&amp;apos;Montserrat-Bold&amp;apos;}.st3{font-size:63.2724px}</style><path class="st0" d="M238.2 681.9V467.7c0-8.5 2.4-15.5 7.1-20.8 4.7-5.3 11-8 18.7-8 13.8 0 22.5 7.2 26 21.6 4.8-7.7 11.6-13.6 20.5-17.6 8.9-4 18.4-6.1 28.6-6.1 17.7 0 32.8 4.9 45.4 14.6 12.6 9.7 22.1 22.4 28.5 38.1 6.4 15.7 9.7 32.3 9.7 49.8 0 16.4-3.5 32.1-10.6 47.1s-17.2 27.2-30.3 36.4c-13.1 9.2-27.9 13.9-44.4 13.9-8.2 0-16.4-1.5-24.7-4.6-8.3-3.1-15.9-7.5-22.6-13.4V682c0 5.4-1.1 10.3-3.3 14.7-2.2 4.4-5.3 7.9-9.3 10.3-4 2.4-8.4 3.6-13.3 3.6-7.7 0-13.9-2.6-18.7-7.8-4.9-5.3-7.3-12.2-7.3-20.9zM290 535.3c0 13.9 3.5 26.4 10.4 37.4 7 11 17 16.5 30.1 16.5 8.4 0 15.7-2.6 21.9-7.7 6.2-5.2 10.8-11.7 13.9-19.6 3-7.9 4.6-16.2 4.6-24.9s-1.5-17-4.6-25.1c-3-8.1-7.6-14.7-13.8-19.9-6.1-5.2-13.5-7.8-22-7.8-8.8 0-16.2 2.4-22.4 7.3-6.1 4.9-10.7 11.2-13.7 18.9-2.9 7.7-4.4 16-4.4 24.9zM451 605.6V384.4c0-8.5 2.4-15.5 7.1-20.8 4.7-5.3 11-8 18.7-8 5 0 9.5 1.2 13.4 3.6 3.9 2.4 7 5.8 9.2 10.2 2.2 4.4 3.3 9.4 3.3 15v221.2c0 5.6-1.1 10.6-3.3 15-2.2 4.4-5.3 7.8-9.3 10.2-4 2.4-8.4 3.6-13.3 3.6-7.7 0-13.9-2.7-18.7-8-4.7-5.3-7.1-12.3-7.1-20.8zM538.7 561v-93.3c0-8.5 2.4-15.5 7.1-20.8 4.7-5.3 11-8 18.7-8 5 0 9.5 1.2 13.4 3.6 3.9 2.4 7 5.8 9.2 10.2 2.2 4.4 3.3 9.4 3.3 15V560c0 10.2 3.3 18.3 9.9 24.4 6.6 6.1 14.4 9.1 23.4 9.1 6.1 0 11.6-1.3 16.7-3.9 5-2.6 9.1-6.5 12.2-11.5 3.1-5 4.6-11.1 4.6-18.1v-92.3c0-8.5 2.4-15.5 7.1-20.8 4.7-5.3 11-8 18.7-8 5 0 9.5 1.2 13.4 3.6 3.9 2.4 7 5.8 9.2 10.2 2.2 4.4 3.3 9.4 3.3 15V561c0 15.3-3.3 28.7-9.9 40.1-6.6 11.4-16.4 20.2-29.3 26.3-12.9 6.1-28.3 9.2-46.1 9.2-27 0-48-6.8-62.8-20.4-14.6-13.5-22.1-31.9-22.1-55.2zM894.2 469.5c0 5.8-1.9 11.5-5.6 16.8-3.7 5.4-8.5 8.1-14.2 8.1-3.7 0-10-1.7-18.7-5.1-8.7-3.4-16.1-5.1-22.2-5.1-9.2 0-17.2 2.5-23.8 7.5-6.6 5-11.6 11.5-14.8 19.6-3.3 8.1-4.9 16.7-4.9 25.8 0 13.8 3.9 26 11.8 36.5 7.8 10.5 18.4 15.7 31.8 15.7 3.6 0 7.5-.7 11.8-2 4.2-1.3 9.3-3.1 15.4-5.3 6-2.2 9.8-3.3 11.3-3.3 4 0 7.7 1 11.1 3.1 3.4 2 6.1 4.8 8.2 8.2 2 3.4 3.1 7.2 3.1 11.3 0 8-3.7 14.8-11.1 20.1-7.4 5.4-16.2 9.3-26.2 11.7-10.1 2.4-18.7 3.7-26 3.7-17.9 0-33.9-4.5-48.1-13.4-14.2-8.9-25.1-21.1-32.9-36.3-7.8-15.3-11.7-31.9-11.7-49.9 0-12.9 2.3-25.4 6.8-37.5 4.5-12.1 10.9-22.9 19.2-32.4 8.3-9.5 18.2-16.9 29.6-22.3 11.5-5.4 23.8-8.1 37-8.1 8 0 16.9 1.1 26.9 3.2 10 2.2 18.6 5.7 25.7 10.5 6.9 4.8 10.5 11.1 10.5 18.9zM919.3 605.6V384.4c0-8.5 2.4-15.5 7.1-20.8 4.7-5.3 11-8 18.7-8 5 0 9.5 1.2 13.4 3.6 3.9 2.4 7 5.8 9.2 10.2 2.2 4.4 3.3 9.4 3.3 15v120.7l56.7-54.9c8-7.5 15.8-11.2 23.5-11.2 6.2 0 11.4 2.4 15.6 7.2 4.2 4.8 6.3 10.2 6.3 16.1 0 7.5-3.4 14.3-10.2 20.5l-46 41.1 60.7 71.1c4.3 4.9 6.5 10.6 6.5 17.2 0 6.9-2.4 12.7-7.1 17.5-4.7 4.7-10.5 7.1-17.3 7.1-4.4 0-8.5-1.3-12.3-3.8-3.7-2.5-8-6.6-12.6-12.2l-63.2-77.9h-.6v62.8c0 5.6-1.1 10.6-3.3 15-2.2 4.4-5.3 7.8-9.3 10.2-4 2.4-8.4 3.6-13.3 3.6-7.7 0-13.9-2.7-18.7-8-4.8-5.4-7.1-12.4-7.1-20.9zM1258 554h-110.2c1.8 12.3 7.1 21.6 16.1 27.9 9 6.3 19.9 9.5 32.6 9.5 7.8 0 14.5-1.2 20-3.7s12.4-5.9 20.6-10.4c8.2-4.5 14.2-6.8 18-6.8 3.5 0 6.9 1.1 10.3 3.2 3.3 2.2 6 4.9 8 8.3 2 3.4 3 7 3 10.7 0 5.4-2.5 10.7-7.5 16-5 5.3-11.6 10-19.8 14.1-8.2 4.2-17.5 7.5-27.9 10-10.4 2.5-20.1 3.8-29.4 3.8-18.8 0-35.7-4.3-50.5-12.9-14.9-8.6-26.3-20.5-34.4-35.6-8.1-15.1-12.1-32.2-12.1-51.1 0-12.9 2.3-25.4 6.9-37.5 4.6-12.2 11.1-23 19.3-32.5 8.2-9.5 18.1-16.9 29.7-22.2 11.5-5.3 23.8-8 36.9-8 13.4 0 26 2.8 37.6 8.3 11.6 5.6 21.5 12.9 29.6 22s14.4 19.3 18.9 30.4c4.6 11.2 6.8 22.3 6.8 33.2.1 15.6-7.4 23.3-22.5 23.3zm-111.4-34.5h82.3c-1.4-11.8-5.7-21.3-13-28.6-7.3-7.2-16.7-10.9-28.2-10.9-11.1 0-20.4 3.7-27.7 11.1-7.4 7.3-11.9 16.8-13.4 28.4zM1483.1 384.4v221.2c0 5.6-1.1 10.6-3.3 15-2.2 4.4-5.3 7.8-9.3 10.2-4 2.4-8.4 3.6-13.3 3.6-13.9 0-22.5-7.2-25.8-21.5-4.8 7.6-11.6 13.4-20.3 17.6-8.7 4.1-17.8 6.2-27.3 6.2-16.5 0-31.3-4.6-44.3-13.9-13-9.2-23.1-21.4-30.2-36.5-7.1-15.1-10.6-30.8-10.6-47 0-17.5 3.2-34.2 9.5-49.8 6.3-15.7 15.8-28.4 28.5-38.1 12.7-9.7 27.8-14.6 45.4-14.6 5.8 0 11.7.7 17.5 2 5.8 1.3 11.4 3.3 16.7 5.9 5.3 2.6 10.3 5.9 15.1 10v-70.4c0-8.5 2.4-15.5 7.1-20.8 4.7-5.3 11-8 18.7-8 5 0 9.5 1.2 13.4 3.6 3.9 2.4 7 5.8 9.2 10.2 2.2 4.4 3.3 9.5 3.3 15.1zm-51.8 150.9c0-13.9-3.5-25.9-10.6-36-7.1-10.1-17.1-15.1-30.1-15.1-8.4 0-15.7 2.6-21.8 7.8-6.1 5.2-10.7 11.9-13.8 19.9-3 8.1-4.6 16.5-4.6 25.1 0 6 .9 12.1 2.6 18.5 1.8 6.3 4.3 12 7.7 17.1 3.4 5.1 7.6 9.1 12.7 12.1s10.8 4.5 17.1 4.5c8.8 0 16.3-2.6 22.5-7.9 6.2-5.3 10.8-12.1 13.8-20.5 3-8.3 4.5-16.8 4.5-25.5z"/><path class="st1" d="M438.6 603.4l-83.2-40.2-10.4-52.8 83.2-30.3z"/><ellipse transform="rotate(-19.178 387.334 495.488)" class="st0" cx="387.4" cy="495.5" rx="25.9" ry="25.9"/><ellipse transform="rotate(-75.718 389.573 573.661)" class="st0" cx="389.6" cy="573.7" rx="26.1" ry="26.1"/><path class="st0" d="M408.4 593.4l4.5-8-3.1-13.7-43.5-9.7s-1.5 3.9-4.4 9.1c-2.9 5.2 0 9.1 0 9.1l10.8 1.6 30.6 2 5.1 9.6z"/><text transform="translate(477.186 812.442)" class="st0 st2 st3">The best from your allies</text></svg>