<svg version="1.1" id="Capa_1" xmlns="http://www.w3.org/2000/svg" x="0" y="0" width="50" height="50" viewBox="0 0 50 50" xml:space="preserve"><path d="M6.417 0h37.165c3.529 0 6.417 2.613 6.417 6.418v37.166c0 3.805-2.888 6.416-6.417 6.416H6.417C2.887 50 0 47.389 0 43.584V6.418C0 2.613 2.887 0 6.417 0zm30.005 5.555a2.258 2.258 0 0 0-2.25 2.252v5.389a2.256 2.256 0 0 0 2.25 2.25h5.651a2.257 2.257 0 0 0 2.251-2.25V7.807a2.26 2.26 0 0 0-2.251-2.252h-5.651zm7.926 15.59h-4.399c.417 1.359.642 2.801.642 4.291 0 8.314-6.959 15.057-15.542 15.057S9.507 33.753 9.507 25.436c0-1.492.225-2.932.642-4.291H5.556v21.121c0 1.094.894 1.988 1.988 1.988h34.818a1.993 1.993 0 0 0 1.987-1.988l-.001-21.121zm-19.301-5.983c-5.546 0-10.042 4.355-10.042 9.73 0 5.373 4.496 9.729 10.042 9.729 5.544 0 10.042-4.355 10.042-9.729.001-5.374-4.495-9.73-10.042-9.73z"/></svg>