<svg version="1.1" id="Layer_1" xmlns="http://www.w3.org/2000/svg" x="0" y="0" viewBox="0 0 413 157" xml:space="preserve"><style type="text/css">.st0{fill:#21b395}.st1{fill:#fff}.st2{font-family:&apos;Montserrat-Bold&apos;}.st3{font-size:21px}</style><path class="st0" d="M-.3 108.7V37.6c0-2.8.8-5.1 2.4-6.9C3.6 28.9 5.7 28 8.3 28c4.6 0 7.5 2.4 8.6 7.2 1.6-2.6 3.9-4.5 6.8-5.9 2.9-1.3 6.1-2 9.5-2 5.9 0 10.9 1.6 15.1 4.8 4.2 3.2 7.3 7.4 9.5 12.6 2.1 5.2 3.2 10.7 3.2 16.5 0 5.4-1.2 10.6-3.5 15.6s-5.7 9-10 12.1c-4.3 3.1-9.3 4.6-14.7 4.6-2.7 0-5.5-.5-8.2-1.5-2.8-1-5.3-2.5-7.5-4.4v21c0 1.8-.4 3.4-1.1 4.9-.7 1.5-1.8 2.6-3.1 3.4-1.3.8-2.8 1.2-4.4 1.2-2.6 0-4.6-.9-6.2-2.6-1.8-1.7-2.6-4-2.6-6.8zM16.9 60c0 4.6 1.2 8.8 3.5 12.4 2.3 3.7 5.6 5.5 10 5.5 2.8 0 5.2-.9 7.3-2.6 2.1-1.7 3.6-3.9 4.6-6.5 1-2.6 1.5-5.4 1.5-8.3s-.5-5.7-1.5-8.3c-1-2.7-2.5-4.9-4.6-6.6-2-1.7-4.5-2.6-7.3-2.6-2.9 0-5.4.8-7.4 2.4-2 1.6-3.6 3.7-4.5 6.3-1.1 2.6-1.6 5.4-1.6 8.3zM70.3 83.3V9.9c0-2.8.8-5.1 2.4-6.9C74.3 1.2 76.3.4 78.9.4c1.7 0 3.2.4 4.5 1.2 1.3.8 2.3 1.9 3.1 3.4s1.1 3.1 1.1 5v73.4c0 1.9-.4 3.5-1.1 5s-1.8 2.6-3.1 3.4c-1.3.8-2.8 1.2-4.4 1.2-2.6 0-4.6-.9-6.2-2.6-1.7-1.9-2.5-4.2-2.5-7.1zM99.4 68.6v-31c0-2.8.8-5.1 2.4-6.9 1.6-1.8 3.6-2.6 6.2-2.6 1.7 0 3.2.4 4.5 1.2 1.3.8 2.3 1.9 3.1 3.4.7 1.5 1.1 3.1 1.1 5v30.6c0 3.4 1.1 6.1 3.3 8.1 2.2 2 4.8 3 7.8 3 2 0 3.9-.4 5.5-1.3 1.7-.9 3-2.1 4-3.8 1-1.7 1.5-3.7 1.5-6V37.6c0-2.8.8-5.1 2.4-6.9 1.6-1.8 3.6-2.6 6.2-2.6 1.7 0 3.2.4 4.5 1.2 1.3.8 2.3 1.9 3.1 3.4.7 1.5 1.1 3.1 1.1 5v31c0 5.1-1.1 9.5-3.3 13.3-2.2 3.8-5.4 6.7-9.7 8.7-4.3 2-9.4 3.1-15.3 3.1-9 0-15.9-2.3-20.8-6.8-5.1-4.6-7.6-10.7-7.6-18.4zM217.4 38.2c0 1.9-.6 3.8-1.9 5.6-1.2 1.8-2.8 2.7-4.7 2.7-1.2 0-3.3-.6-6.2-1.7-2.9-1.1-5.3-1.7-7.4-1.7-3.1 0-5.7.8-7.9 2.5s-3.8 3.8-4.9 6.5c-1.1 2.7-1.6 5.5-1.6 8.6 0 4.6 1.3 8.6 3.9 12.1 2.6 3.5 6.1 5.2 10.5 5.2 1.2 0 2.5-.2 3.9-.7 1.4-.4 3.1-1 5.1-1.8 2-.7 3.3-1.1 3.8-1.1 1.3 0 2.5.3 3.7 1 1.1.7 2 1.6 2.7 2.7.7 1.1 1 2.4 1 3.7 0 2.7-1.2 4.9-3.7 6.7-2.5 1.8-5.4 3.1-8.7 3.9-3.3.8-6.2 1.2-8.6 1.2-5.9 0-11.3-1.5-16-4.5-4.7-3-8.3-7-10.9-12.1-2.6-5.1-3.9-10.6-3.9-16.6 0-4.3.7-8.4 2.2-12.4s3.6-7.6 6.4-10.7c2.8-3.1 6-5.6 9.8-7.4 3.8-1.8 7.9-2.7 12.3-2.7 2.6 0 5.6.4 8.9 1.1 3.3.7 6.2 1.9 8.5 3.5 2.5 1.7 3.7 3.8 3.7 6.4zM225.7 83.3V9.9c0-2.8.8-5.1 2.4-6.9 1.6-1.8 3.6-2.6 6.2-2.6 1.7 0 3.2.4 4.5 1.2 1.3.8 2.3 1.9 3.1 3.4.7 1.5 1.1 3.1 1.1 5v40l18.8-18.2c2.6-2.5 5.2-3.7 7.8-3.7 2.1 0 3.8.8 5.2 2.4 1.4 1.6 2.1 3.4 2.1 5.4 0 2.5-1.1 4.8-3.4 6.8l-15.3 13.6 20.1 23.6c1.4 1.6 2.2 3.5 2.2 5.7 0 2.3-.8 4.2-2.4 5.8s-3.5 2.4-5.7 2.4c-1.5 0-2.8-.4-4.1-1.3-1.2-.8-2.6-2.2-4.2-4l-21-25.9h-.2v20.8c0 1.9-.4 3.5-1.1 5-.7 1.5-1.8 2.6-3.1 3.4-1.3.8-2.8 1.2-4.4 1.2-2.6 0-4.6-.9-6.2-2.6s-2.4-4.2-2.4-7.1zM338.2 66.2h-36.6c.6 4.1 2.4 7.2 5.4 9.3 3 2.1 6.6 3.1 10.8 3.1 2.6 0 4.8-.4 6.6-1.2 1.8-.8 4.1-2 6.8-3.5s4.7-2.2 6-2.2c1.2 0 2.3.4 3.4 1.1 1.1.7 2 1.6 2.6 2.8.7 1.1 1 2.3 1 3.6 0 1.8-.8 3.6-2.5 5.3-1.7 1.7-3.8 3.3-6.6 4.7-2.7 1.4-5.8 2.5-9.3 3.3-3.4.8-6.7 1.3-9.8 1.3-6.2 0-11.8-1.4-16.8-4.3-4.9-2.9-8.7-6.8-11.4-11.8-2.7-5-4-10.7-4-17 0-4.3.8-8.4 2.3-12.5 1.5-4 3.7-7.6 6.4-10.8 2.7-3.1 6-5.6 9.8-7.4 3.8-1.8 7.9-2.6 12.3-2.6 4.5 0 8.6.9 12.5 2.8 3.9 1.8 7.1 4.3 9.8 7.3s4.8 6.4 6.3 10.1c1.5 3.7 2.3 7.4 2.3 11 .2 5.1-2.3 7.6-7.3 7.6zm-37-11.4h27.3c-.5-3.9-1.9-7.1-4.3-9.5-2.4-2.4-5.5-3.6-9.4-3.6-3.7 0-6.8 1.2-9.2 3.7-2.4 2.4-3.9 5.5-4.4 9.4zM412.9 9.9v73.4c0 1.9-.4 3.5-1.1 5s-1.8 2.6-3.1 3.4c-1.3.8-2.8 1.2-4.4 1.2-4.6 0-7.5-2.4-8.6-7.1-1.6 2.5-3.8 4.5-6.7 5.8-2.9 1.4-5.9 2.1-9.1 2.1-5.5 0-10.4-1.5-14.7-4.6-4.3-3.1-7.7-7.1-10-12.1s-3.5-10.2-3.5-15.6c0-5.8 1-11.3 3.1-16.5 2.1-5.2 5.2-9.4 9.5-12.6 4.2-3.2 9.2-4.8 15.1-4.8 1.9 0 3.9.2 5.8.7 1.9.4 3.8 1.1 5.5 2 1.7.9 3.4 2 5 3.3V9.9c0-2.8.8-5.1 2.4-6.9 1.6-1.8 3.6-2.6 6.2-2.6 1.7 0 3.2.4 4.5 1.2 1.3.8 2.3 1.9 3.1 3.4s1 3.1 1 4.9zM395.7 60c0-4.6-1.2-8.6-3.5-12-2.3-3.3-5.7-5-10-5-2.8 0-5.2.9-7.2 2.6-2 1.7-3.6 3.9-4.6 6.6-1 2.7-1.5 5.5-1.5 8.3 0 2 .3 4 .9 6.1.6 2.1 1.4 4 2.6 5.7 1.1 1.7 2.5 3 4.2 4 1.7 1 3.6 1.5 5.7 1.5 2.9 0 5.4-.9 7.5-2.6 2.1-1.7 3.6-4 4.6-6.8.8-2.7 1.3-5.5 1.3-8.4z"/><path class="st1" d="M66.2 82.6L38.6 69.3l-3.5-17.6 27.6-10z"/><ellipse transform="rotate(-19.178 49.181 46.805)" class="st0" cx="49.2" cy="46.8" rx="8.6" ry="8.6"/><ellipse transform="rotate(-75.718 49.918 72.75)" class="st0" cx="49.9" cy="72.7" rx="8.7" ry="8.7"/><path class="st0" d="M56.2 79.3l1.5-2.6-1-4.5L42.3 69s-.5 1.3-1.5 3 0 3 0 3l3.6.5 10.2.7 1.6 3.1z"/><text transform="translate(79 152)" class="st0 st2 st3">The best from your allies</text></svg>