<svg version="1.1" id="Layer_1" xmlns="http://www.w3.org/2000/svg" x="0" y="0" viewBox="0 0 213 73" xml:space="preserve"><path d="M19.4 0v4.3h-7.3v18.9H7.5V4.3H.2V0h19.2zM42.4 18.8H32.3l-1.7 4.4h-5L35.2 0h4.3l9.6 23.2h-5l-1.7-4.4zm-1.6-4.1l-2.3-5.9c-.5-1.3-1.1-3.2-1.1-3.2s-.6 1.9-1.1 3.2L34 14.7h6.8zM80.8 0v23.2h-4.5V16c0-4.9.2-8.2.1-8.2 0 0-1.7 2.9-2.1 3.5l-3.6 6.2h-2.4l-3.6-6.2c-.4-.7-2.1-3.5-2.1-3.5s.2 3.4.2 8.2v7.3h-4.5V0h4.3l4.8 8c1.8 3 2.1 3.7 2.1 3.7s.3-.7 2.1-3.7l4.8-8h4.4zM151.5 0v4.3h-7.3v18.9h-4.6V4.3h-7.2V0h19.1zM174.5 18.8h-10.1l-1.7 4.4h-5L167.3 0h4.3l9.6 23.2h-5l-1.7-4.4zm-1.6-4.1l-2.3-5.9c-.5-1.3-1.1-3.2-1.1-3.2s-.6 1.9-1.1 3.2l-2.3 5.9h6.8zM212.8 0v23.2h-4.5V16c0-4.9.2-8.2.1-8.2 0 0-1.7 2.9-2.1 3.5l-3.6 6.2h-2.4l-3.6-6.2c-.4-.7-2.1-3.5-2.1-3.5s.2 3.4.2 8.2v7.3h-4.5V0h4.3l4.8 8c1.8 3 2.1 3.7 2.1 3.7s.3-.7 2.1-3.7l4.8-8h4.4z"/><path transform="rotate(-45.001 106.544 11.689)" d="M97.9 9.5h17.3v4.3H97.9z"/><g><path d="M129.8 72.8c.2 0 .3 0 .4-.1.1 0 .1-.1.1-.1v-7.3-.4c0-.1 0-.2-.1-.3 0-.1-.1-.1-.1-.1-.1 0-.1-.1-.2-.1l-.4-.1v-.1l1.8-.5v1.1c.3-.3.6-.6.9-.8.3-.2.7-.3 1.1-.3.3 0 .7.1.9.2.3.1.5.3.8.6.2.2.4.5.5.9.1.3.2.7.2 1.1 0 .5-.1.9-.2 1.3-.2.4-.4.7-.7 1-.3.3-.6.5-.9.7-.4.2-.7.2-1.1.2-.3 0-.6 0-.8-.1-.3-.1-.5-.1-.7-.2v3.1s0 .1.1.1.2 0 .5.1h.6v.2h-3v-.2l.3.1zm3.9-3.4c.2-.1.4-.3.6-.6.2-.2.3-.5.4-.8.1-.3.1-.7.1-1.1 0-.4 0-.7-.1-1-.1-.3-.2-.6-.4-.8-.2-.2-.4-.4-.6-.5-.2-.1-.5-.2-.8-.2-.3 0-.6.1-.9.2-.3.2-.5.3-.7.6v3.3c.2.3.4.5.7.7.3.2.6.3 1 .3.2.1.4 0 .7-.1zM139.9 69.6c-.2-.2-.2-.4-.3-.7-.2.3-.5.5-.8.7-.3.2-.6.3-.9.3-.2 0-.4 0-.6-.1-.2-.1-.3-.2-.4-.3-.1-.1-.2-.3-.3-.4-.1-.2-.1-.3-.1-.5s.1-.5.2-.7c.1-.2.3-.4.5-.6.2-.2.6-.3 1-.5s.9-.3 1.5-.5v-.5c0-.3 0-.6-.1-.8-.1-.2-.2-.4-.3-.5-.1-.1-.3-.2-.4-.3-.2-.1-.3-.1-.5-.1-.1 0-.3 0-.4.1-.1 0-.3.1-.4.1-.1 0-.2.1-.3.1l-.1.1v.1l.1.1c0 .1.1.1.1.2v.2c0 .1-.1.3-.2.4-.1.1-.2.2-.4.2s-.3 0-.4-.1c-.1-.1-.2-.2-.2-.4s.1-.3.2-.5c.2-.2.4-.3.6-.5.2-.1.5-.3.8-.4.3-.1.6-.1.8-.1.3 0 .6 0 .8.1.2.1.4.2.5.3l.3.6c.1.3.1.6.1 1l-.1 2.8c0 .2 0 .3.1.4.1.1.2.1.3.1.1 0 .2 0 .3-.1l.3-.3.1.1c-.1.1-.1.2-.2.3l-.3.3c-.1.1-.2.2-.3.2-.1.1-.2.1-.4.1.1.2-.1.1-.2 0zm-.9-.6c.2-.1.4-.3.6-.4l.1-2.1c-.5.1-.8.2-1.1.4-.3.1-.5.3-.7.4-.2.1-.3.3-.3.4-.1.2-.1.3-.1.5 0 .3.1.6.3.7.2.2.4.3.7.3.1 0 .3-.1.5-.2zM142.2 69.4c.2 0 .3 0 .4-.1.1 0 .1-.1.1-.1v-3.9-.4c0-.1 0-.2-.1-.3 0-.1-.1-.1-.1-.1-.1 0-.1-.1-.2-.1l-.4-.1v-.1l1.8-.5v2.1c.2-.7.5-1.2.8-1.6.3-.4.6-.5 1-.5.2 0 .4.1.6.2.1.1.2.3.2.5s-.1.3-.2.5c-.1.1-.3.2-.5.2s-.3-.1-.4-.2c-.1-.1-.2-.3-.2-.5-.3.1-.5.3-.7.6-.2.3-.4.8-.6 1.3v3c0 .1 0 .1.1.1s.2 0 .4.1h.5v.2h-2.9v-.2l.4-.1zM148.1 69.8c-.2 0-.3-.1-.4-.2-.1-.1-.2-.3-.3-.4-.1-.2-.1-.4-.1-.7l.1-4h-1v-.2l1.8-1.5h.2V64h2l-.2.5h-1.8c0 .7 0 1.4-.1 1.9v1.9c0 .3.1.6.2.7.2.2.4.2.7.2.2 0 .4 0 .6-.1.2-.1.4-.2.5-.3l.1.1c-.2.2-.5.5-.8.6-.3.2-.6.3-.9.3h-.6zM155 69.6c-.4-.2-.7-.4-.9-.6-.3-.3-.5-.6-.6-1-.1-.4-.2-.8-.2-1.2 0-.4.1-.8.2-1.2.2-.4.4-.7.6-1 .3-.3.6-.5 1-.7.4-.2.8-.2 1.2-.2.4 0 .8.1 1.2.2.4.2.7.4.9.6.3.3.5.6.6.9.1.4.2.8.2 1.2 0 .4-.1.9-.2 1.2-.2.4-.4.7-.6 1-.3.3-.6.5-.9.7-.4.2-.8.2-1.2.2-.6.1-1 .1-1.3-.1zm2-.2c.2-.1.4-.3.6-.6.2-.2.3-.5.4-.9.1-.3.1-.7.1-1 0-.5-.1-1-.2-1.4-.1-.4-.3-.8-.6-1-.2-.2-.3-.3-.5-.4-.2-.1-.4-.1-.7-.1-.3 0-.5.1-.8.2-.2.1-.4.3-.6.6-.2.2-.3.5-.4.8-.1.3-.1.7-.1 1 0 .5.1 1 .2 1.5.1.4.3.8.6 1 .1.2.3.3.5.4.2.1.4.1.7.1.3 0 .5-.1.8-.2zM160.2 69.4c.2 0 .3 0 .4-.1.1 0 .1-.1.1-.1v-4.8h-1l.2-.5h.8v-.3c0-.5.1-.9.3-1.3.2-.4.4-.7.6-.9.2-.2.5-.4.8-.6.3-.1.6-.2.9-.2.3 0 .5.1.7.2.2.1.2.3.2.5s-.1.3-.2.4c-.1.1-.2.2-.4.2s-.3-.1-.5-.2c-.1-.1-.2-.3-.3-.5v-.1h-.2c-.4.1-.6.4-.8.8-.1.4-.2.9-.2 1.6v.5h1.6l-.2.5h-1.4v4.8c0 .1 0 .1.1.1s.2 0 .4.1h.6v.2h-3v-.2l.5-.1zM206.4 69.8h3.2V61h3.2v-2.7h-9.7V61h3.2v8.8zm-10.7-6.2v-2.8h1.9c1.2 0 1.8.5 1.8 1.4 0 .9-.6 1.4-1.8 1.4h-1.9zm-3.2 6.2h3.2V66h1.9c2.9 0 4.8-1.2 4.8-3.9s-1.9-3.9-4.8-3.9h-5.2v11.6zm-11.1 0h8.8v-2.6h-5.6v-2h5.5v-2.5h-5.5v-1.9h5.6v-2.6h-8.8v11.6zm-9.8-2.7v-6.2h1c2.3 0 3.7.8 3.7 3.1s-1.4 3.1-3.7 3.1h-1zm-3.2 2.7h4.2c4 0 6.9-1.6 6.9-5.8 0-4.2-2.9-5.8-6.9-5.8h-4.2v11.6z"/></g></svg>