<svg width="23" height="32" viewBox="0 0 23 32" version="1.1" xmlns="http://www.w3.org/2000/svg"><title>right-arrow</title><g id="Page-1" stroke="none" stroke-width="1" fill="none" fill-rule="evenodd"><g id="Group" transform="translate(-15 -11)" fill="#1E201D" fill-rule="nonzero"><g id="right-arrow" transform="rotate(90 13.5 25)"><path d="M21.205 1.007a1.112 1.112 0 0 0-1.587 0 1.12 1.12 0 0 0 0 1.571l8.047 8.047H1.111A1.106 1.106 0 0 0 0 11.737c0 .619.492 1.127 1.111 1.127h26.554l-8.047 8.032c-.429.444-.429 1.159 0 1.587a1.112 1.112 0 0 0 1.587 0l9.952-9.952a1.093 1.093 0 0 0 0-1.571l-9.952-9.953z" id="Shape"/></g></g></g></svg>