<svg xmlns="http://www.w3.org/2000/svg" version="1.1" id="Layer_1" x="0" y="0" viewBox="0 0 512 512" xml:space="preserve" width="512" height="512"><g fill="#a6a6a6"><path d="M445.583 245.125l-95.688-63.792c-20.917-13.958-49.542-13.958-70.458 0l-2.104 1.406V42.667C277.333 19.135 258.188 0 234.667 0 211.146 0 192 19.135 192 42.667v285.479c0 5.375-3.542 8.135-5.063 9.073-1.521.948-5.563 2.854-10.375.469l-68.5-34.25a45.386 45.386 0 0 0-20.208-4.771c-24.917 0-45.188 20.271-45.188 45.188V352c0 2.958 1.229 5.781 3.396 7.802l123.125 114.896C194.938 498.75 228.521 512 263.792 512h98.875c58.813 0 106.667-47.854 106.667-106.667V289.5a53.22 53.22 0 0 0-23.751-44.375z"/><path d="M99.125 252.875a10.634 10.634 0 0 0 7.542 3.125c2.729 0 5.458-1.042 7.542-3.125l53.333-53.333a10.693 10.693 0 0 0 2.313-11.625 10.655 10.655 0 0 0-9.854-6.583h-21.333a10.66 10.66 0 0 0-7.542 3.125L128 187.583V53.333a10.66 10.66 0 0 0-10.667-10.667H96a10.66 10.66 0 0 0-10.667 10.667v134.25l-3.125-3.125c-2-2-4.708-3.125-7.542-3.125H53.333a10.655 10.655 0 0 0-9.854 6.583 10.692 10.692 0 0 0 2.313 11.625l53.333 53.334z"/></g></svg>