<?xml version="1.0" encoding="iso-8859-1"?>
<!-- Generator: Adobe Illustrator 19.0.0, SVG Export Plug-In . SVG Version: 6.00 Build 0)  -->
<svg xmlns="http://www.w3.org/2000/svg" xmlns:xlink="http://www.w3.org/1999/xlink" version="1.1" id="Layer_1" x="0px" y="0px" viewBox="0 0 512 512" style="enable-background:new 0 0 512 512;" xml:space="preserve" width="512px" height="512px">
<g>
	<g>
		<g>
			<path d="M445.583,245.125l-95.688-63.792c-20.917-13.958-49.542-13.958-70.458,0l-2.104,1.406V42.667     C277.333,19.135,258.188,0,234.667,0C211.146,0,192,19.135,192,42.667v285.479c0,5.375-3.542,8.135-5.063,9.073     c-1.521,0.948-5.563,2.854-10.375,0.469l-68.5-34.25c-6.25-3.125-13.229-4.771-20.208-4.771     c-24.917,0-45.188,20.271-45.188,45.188V352c0,2.958,1.229,5.781,3.396,7.802l123.125,114.896     C194.938,498.75,228.521,512,263.792,512h98.875c58.813,0,106.667-47.854,106.667-106.667V289.5     C469.333,271.625,460.458,255.042,445.583,245.125z" fill="#a6a6a6"/>
			<path d="M99.125,252.875c2.083,2.083,4.813,3.125,7.542,3.125c2.729,0,5.458-1.042,7.542-3.125l53.333-53.333     c3.042-3.052,3.958-7.635,2.313-11.625c-1.646-3.99-5.542-6.583-9.854-6.583h-21.333c-2.833,0-5.542,1.125-7.542,3.125     L128,187.583V53.333c0-5.896-4.771-10.667-10.667-10.667H96c-5.896,0-10.667,4.771-10.667,10.667v134.25l-3.125-3.125     c-2-2-4.708-3.125-7.542-3.125H53.333c-4.313,0-8.208,2.594-9.854,6.583c-1.646,3.99-0.729,8.573,2.313,11.625L99.125,252.875z" fill="#a6a6a6"/>
		</g>
	</g>
</g>
<g>
</g>
<g>
</g>
<g>
</g>
<g>
</g>
<g>
</g>
<g>
</g>
<g>
</g>
<g>
</g>
<g>
</g>
<g>
</g>
<g>
</g>
<g>
</g>
<g>
</g>
<g>
</g>
<g>
</g>
</svg>
